<?xml version="1.0" encoding="UTF-8" standalone="no"?><svg xmlns="http://www.w3.org/2000/svg" xmlns:xlink="http://www.w3.org/1999/xlink" contentScriptType="application/ecmascript" contentStyleType="text/css" height="988px" preserveAspectRatio="none" style="width:1633px;height:988px;" version="1.1" viewBox="0 0 1633 988" width="1633px" zoomAndPan="magnify"><defs><filter height="300%" id="f1te76y5i9yszt" width="300%" x="-1" y="-1"><feGaussianBlur result="blurOut" stdDeviation="2.0"/><feColorMatrix in="blurOut" result="blurOut2" type="matrix" values="0 0 0 0 0 0 0 0 0 0 0 0 0 0 0 0 0 0 .4 0"/><feOffset dx="4.0" dy="4.0" in="blurOut2" result="blurOut3"/><feBlend in="SourceGraphic" in2="blurOut3" mode="normal"/></filter></defs><g><!--cluster utils--><polygon fill="#FFFFFF" filter="url(#f1te76y5i9yszt)" points="14,16,53,16,60,38.4883,234,38.4883,234,270,14,270,14,16" style="stroke: #000000; stroke-width: 1.5;"/><line style="stroke: #000000; stroke-width: 1.5;" x1="14" x2="60" y1="38.4883" y2="38.4883"/><text fill="#000000" font-family="sans-serif" font-size="14" font-weight="bold" lengthAdjust="spacingAndGlyphs" textLength="33" x="18" y="31.5352">utils</text><!--cluster design--><polygon fill="#FFFFFF" filter="url(#f1te76y5i9yszt)" points="242,16,296,16,303,38.4883,1156,38.4883,1156,696,242,696,242,16" style="stroke: #000000; stroke-width: 1.5;"/><line style="stroke: #000000; stroke-width: 1.5;" x1="242" x2="303" y1="38.4883" y2="38.4883"/><text fill="#000000" font-family="sans-serif" font-size="14" font-weight="bold" lengthAdjust="spacingAndGlyphs" textLength="48" x="246" y="31.5352">design</text><!--cluster run--><polygon fill="#FFFFFF" filter="url(#f1te76y5i9yszt)" points="1164,504,1194,504,1201,526.4883,1543,526.4883,1543,976,1164,976,1164,504" style="stroke: #000000; stroke-width: 1.5;"/><line style="stroke: #000000; stroke-width: 1.5;" x1="1164" x2="1201" y1="526.4883" y2="526.4883"/><text fill="#000000" font-family="sans-serif" font-size="14" font-weight="bold" lengthAdjust="spacingAndGlyphs" textLength="24" x="1168" y="519.5352">run</text><!--class Logger--><rect fill="#FEFECE" filter="url(#f1te76y5i9yszt)" height="48" id="Logger" style="stroke: #A80036; stroke-width: 1.5;" width="71" x="31.5" y="43"/><ellipse cx="46.5" cy="59" fill="#ADD1B2" rx="11" ry="11" style="stroke: #A80036; stroke-width: 1.0;"/><path d="M48.9731,65.1431 Q48.3921,65.4419 47.7529,65.5913 Q47.1138,65.7407 46.4082,65.7407 Q43.9014,65.7407 42.5815,64.0889 Q41.2617,62.437 41.2617,59.3159 Q41.2617,56.1865 42.5815,54.5347 Q43.9014,52.8828 46.4082,52.8828 Q47.1138,52.8828 47.7612,53.0322 Q48.4087,53.1816 48.9731,53.4805 L48.9731,56.2031 Q48.3423,55.6221 47.7488,55.3523 Q47.1553,55.0825 46.5244,55.0825 Q45.1797,55.0825 44.4949,56.1492 Q43.8101,57.2158 43.8101,59.3159 Q43.8101,61.4077 44.4949,62.4744 Q45.1797,63.541 46.5244,63.541 Q47.1553,63.541 47.7488,63.2712 Q48.3423,63.0015 48.9731,62.4204 Z "/><text fill="#000000" font-family="sans-serif" font-size="12" lengthAdjust="spacingAndGlyphs" textLength="39" x="60.5" y="63.5352">Logger</text><line style="stroke: #A80036; stroke-width: 1.5;" x1="32.5" x2="101.5" y1="75" y2="75"/><line style="stroke: #A80036; stroke-width: 1.5;" x1="32.5" x2="101.5" y1="83" y2="83"/><!--class Constants--><rect fill="#FEFECE" filter="url(#f1te76y5i9yszt)" height="48" id="Constants" style="stroke: #A80036; stroke-width: 1.5;" width="88" x="138" y="43"/><ellipse cx="153" cy="59" fill="#ADD1B2" rx="11" ry="11" style="stroke: #A80036; stroke-width: 1.0;"/><path d="M155.4731,65.1431 Q154.8921,65.4419 154.2529,65.5913 Q153.6138,65.7407 152.9082,65.7407 Q150.4014,65.7407 149.0815,64.0889 Q147.7617,62.437 147.7617,59.3159 Q147.7617,56.1865 149.0815,54.5347 Q150.4014,52.8828 152.9082,52.8828 Q153.6138,52.8828 154.2612,53.0322 Q154.9087,53.1816 155.4731,53.4805 L155.4731,56.2031 Q154.8423,55.6221 154.2488,55.3523 Q153.6553,55.0825 153.0244,55.0825 Q151.6797,55.0825 150.9949,56.1492 Q150.3101,57.2158 150.3101,59.3159 Q150.3101,61.4077 150.9949,62.4744 Q151.6797,63.541 153.0244,63.541 Q153.6553,63.541 154.2488,63.2712 Q154.8423,63.0015 155.4731,62.4204 Z "/><text fill="#000000" font-family="sans-serif" font-size="12" lengthAdjust="spacingAndGlyphs" textLength="56" x="167" y="63.5352">Constants</text><line style="stroke: #A80036; stroke-width: 1.5;" x1="139" x2="225" y1="75" y2="75"/><line style="stroke: #A80036; stroke-width: 1.5;" x1="139" x2="225" y1="83" y2="83"/><!--class SoundBlocks--><rect fill="#FEFECE" filter="url(#f1te76y5i9yszt)" height="48" id="SoundBlocks" style="stroke: #A80036; stroke-width: 1.5;" width="103" x="22.5" y="214"/><ellipse cx="37.5" cy="230" fill="#ADD1B2" rx="11" ry="11" style="stroke: #A80036; stroke-width: 1.0;"/><path d="M39.9731,236.1431 Q39.3921,236.4419 38.7529,236.5913 Q38.1138,236.7407 37.4082,236.7407 Q34.9014,236.7407 33.5815,235.0889 Q32.2617,233.437 32.2617,230.3159 Q32.2617,227.1865 33.5815,225.5347 Q34.9014,223.8828 37.4082,223.8828 Q38.1138,223.8828 38.7612,224.0322 Q39.4087,224.1816 39.9731,224.4805 L39.9731,227.2031 Q39.3423,226.6221 38.7488,226.3523 Q38.1553,226.0825 37.5244,226.0825 Q36.1797,226.0825 35.4949,227.1492 Q34.8101,228.2158 34.8101,230.3159 Q34.8101,232.4077 35.4949,233.4744 Q36.1797,234.541 37.5244,234.541 Q38.1553,234.541 38.7488,234.2712 Q39.3423,234.0015 39.9731,233.4204 Z "/><text fill="#000000" font-family="sans-serif" font-size="12" lengthAdjust="spacingAndGlyphs" textLength="71" x="51.5" y="234.5352">SoundBlocks</text><line style="stroke: #A80036; stroke-width: 1.5;" x1="23.5" x2="124.5" y1="246" y2="246"/><line style="stroke: #A80036; stroke-width: 1.5;" x1="23.5" x2="124.5" y1="254" y2="254"/><!--class Notes--><rect fill="#FEFECE" filter="url(#f1te76y5i9yszt)" height="48" id="Notes" style="stroke: #A80036; stroke-width: 1.5;" width="65" x="160.5" y="214"/><ellipse cx="175.5" cy="230" fill="#ADD1B2" rx="11" ry="11" style="stroke: #A80036; stroke-width: 1.0;"/><path d="M177.9731,236.1431 Q177.3921,236.4419 176.7529,236.5913 Q176.1138,236.7407 175.4082,236.7407 Q172.9014,236.7407 171.5815,235.0889 Q170.2617,233.437 170.2617,230.3159 Q170.2617,227.1865 171.5815,225.5347 Q172.9014,223.8828 175.4082,223.8828 Q176.1138,223.8828 176.7612,224.0322 Q177.4087,224.1816 177.9731,224.4805 L177.9731,227.2031 Q177.3423,226.6221 176.7488,226.3523 Q176.1553,226.0825 175.5244,226.0825 Q174.1797,226.0825 173.4949,227.1492 Q172.8101,228.2158 172.8101,230.3159 Q172.8101,232.4077 173.4949,233.4744 Q174.1797,234.541 175.5244,234.541 Q176.1553,234.541 176.7488,234.2712 Q177.3423,234.0015 177.9731,233.4204 Z "/><text fill="#000000" font-family="sans-serif" font-size="12" lengthAdjust="spacingAndGlyphs" textLength="33" x="189.5" y="234.5352">Notes</text><line style="stroke: #A80036; stroke-width: 1.5;" x1="161.5" x2="224.5" y1="246" y2="246"/><line style="stroke: #A80036; stroke-width: 1.5;" x1="161.5" x2="224.5" y1="254" y2="254"/><!--class NamedElement--><rect fill="#FEFECE" filter="url(#f1te76y5i9yszt)" height="48" id="NamedElement" style="stroke: #A80036; stroke-width: 1.5;" width="120" x="475" y="43"/><ellipse cx="490" cy="59" fill="#ADD1B2" rx="11" ry="11" style="stroke: #A80036; stroke-width: 1.0;"/><path d="M492.4731,65.1431 Q491.8921,65.4419 491.2529,65.5913 Q490.6138,65.7407 489.9082,65.7407 Q487.4014,65.7407 486.0815,64.0889 Q484.7617,62.437 484.7617,59.3159 Q484.7617,56.1865 486.0815,54.5347 Q487.4014,52.8828 489.9082,52.8828 Q490.6138,52.8828 491.2612,53.0322 Q491.9087,53.1816 492.4731,53.4805 L492.4731,56.2031 Q491.8423,55.6221 491.2488,55.3523 Q490.6553,55.0825 490.0244,55.0825 Q488.6797,55.0825 487.9949,56.1492 Q487.3101,57.2158 487.3101,59.3159 Q487.3101,61.4077 487.9949,62.4744 Q488.6797,63.541 490.0244,63.541 Q490.6553,63.541 491.2488,63.2712 Q491.8423,63.0015 492.4731,62.4204 Z "/><text fill="#000000" font-family="sans-serif" font-size="12" lengthAdjust="spacingAndGlyphs" textLength="88" x="504" y="63.5352">NamedElement</text><line style="stroke: #A80036; stroke-width: 1.5;" x1="476" x2="594" y1="75" y2="75"/><line style="stroke: #A80036; stroke-width: 1.5;" x1="476" x2="594" y1="83" y2="83"/><!--class Signal--><rect fill="#FEFECE" filter="url(#f1te76y5i9yszt)" height="48" id="Signal" style="stroke: #A80036; stroke-width: 1.5;" width="65" x="378.5" y="214"/><ellipse cx="393.5" cy="230" fill="#A9DCDF" rx="11" ry="11" style="stroke: #A80036; stroke-width: 1.0;"/><path d="M393.6133,225.5981 L392.4595,230.6699 L394.7754,230.6699 Z M392.1191,223.3569 L395.1157,223.3569 L398.4609,235.75 L396.0122,235.75 L395.2485,232.687 L391.9697,232.687 L391.2227,235.75 L388.7739,235.75 Z "/><text fill="#000000" font-family="sans-serif" font-size="12" font-style="italic" lengthAdjust="spacingAndGlyphs" textLength="33" x="407.5" y="234.5352">Signal</text><line style="stroke: #A80036; stroke-width: 1.5;" x1="379.5" x2="442.5" y1="246" y2="246"/><line style="stroke: #A80036; stroke-width: 1.5;" x1="379.5" x2="442.5" y1="254" y2="254"/><!--class Oscillator--><rect fill="#FEFECE" filter="url(#f1te76y5i9yszt)" height="48" id="Oscillator" style="stroke: #A80036; stroke-width: 1.5;" width="85" x="250.5" y="401"/><ellipse cx="265.5" cy="417" fill="#ADD1B2" rx="11" ry="11" style="stroke: #A80036; stroke-width: 1.0;"/><path d="M267.9731,423.1431 Q267.3921,423.4419 266.7529,423.5913 Q266.1138,423.7407 265.4082,423.7407 Q262.9014,423.7407 261.5815,422.0889 Q260.2617,420.437 260.2617,417.3159 Q260.2617,414.1865 261.5815,412.5347 Q262.9014,410.8828 265.4082,410.8828 Q266.1138,410.8828 266.7612,411.0322 Q267.4087,411.1816 267.9731,411.4805 L267.9731,414.2031 Q267.3423,413.6221 266.7488,413.3523 Q266.1553,413.0825 265.5244,413.0825 Q264.1797,413.0825 263.4949,414.1492 Q262.8101,415.2158 262.8101,417.3159 Q262.8101,419.4077 263.4949,420.4744 Q264.1797,421.541 265.5244,421.541 Q266.1553,421.541 266.7488,421.2712 Q267.3423,421.0015 267.9731,420.4204 Z "/><text fill="#000000" font-family="sans-serif" font-size="12" lengthAdjust="spacingAndGlyphs" textLength="53" x="279.5" y="421.5352">Oscillator</text><line style="stroke: #A80036; stroke-width: 1.5;" x1="251.5" x2="334.5" y1="433" y2="433"/><line style="stroke: #A80036; stroke-width: 1.5;" x1="251.5" x2="334.5" y1="441" y2="441"/><!--class ComplexOscillator--><rect fill="#FEFECE" filter="url(#f1te76y5i9yszt)" height="48" id="ComplexOscillator" style="stroke: #A80036; stroke-width: 1.5;" width="136" x="250" y="640"/><ellipse cx="265" cy="656" fill="#ADD1B2" rx="11" ry="11" style="stroke: #A80036; stroke-width: 1.0;"/><path d="M267.4731,662.1431 Q266.8921,662.4419 266.2529,662.5913 Q265.6138,662.7407 264.9082,662.7407 Q262.4014,662.7407 261.0815,661.0889 Q259.7617,659.437 259.7617,656.3159 Q259.7617,653.1865 261.0815,651.5347 Q262.4014,649.8828 264.9082,649.8828 Q265.6138,649.8828 266.2612,650.0322 Q266.9087,650.1816 267.4731,650.4805 L267.4731,653.2031 Q266.8423,652.6221 266.2488,652.3523 Q265.6553,652.0825 265.0244,652.0825 Q263.6797,652.0825 262.9949,653.1492 Q262.3101,654.2158 262.3101,656.3159 Q262.3101,658.4077 262.9949,659.4744 Q263.6797,660.541 265.0244,660.541 Q265.6553,660.541 266.2488,660.2712 Q266.8423,660.0015 267.4731,659.4204 Z "/><text fill="#000000" font-family="sans-serif" font-size="12" lengthAdjust="spacingAndGlyphs" textLength="104" x="279" y="660.5352">ComplexOscillator</text><line style="stroke: #A80036; stroke-width: 1.5;" x1="251" x2="385" y1="672" y2="672"/><line style="stroke: #A80036; stroke-width: 1.5;" x1="251" x2="385" y1="680" y2="680"/><!--class Track--><rect fill="#FEFECE" filter="url(#f1te76y5i9yszt)" height="48" id="Track" style="stroke: #A80036; stroke-width: 1.5;" width="65" x="370.5" y="401"/><ellipse cx="385.5" cy="417" fill="#ADD1B2" rx="11" ry="11" style="stroke: #A80036; stroke-width: 1.0;"/><path d="M387.9731,423.1431 Q387.3921,423.4419 386.7529,423.5913 Q386.1138,423.7407 385.4082,423.7407 Q382.9014,423.7407 381.5815,422.0889 Q380.2617,420.437 380.2617,417.3159 Q380.2617,414.1865 381.5815,412.5347 Q382.9014,410.8828 385.4082,410.8828 Q386.1138,410.8828 386.7612,411.0322 Q387.4087,411.1816 387.9731,411.4805 L387.9731,414.2031 Q387.3423,413.6221 386.7488,413.3523 Q386.1553,413.0825 385.5244,413.0825 Q384.1797,413.0825 383.4949,414.1492 Q382.8101,415.2158 382.8101,417.3159 Q382.8101,419.4077 383.4949,420.4744 Q384.1797,421.541 385.5244,421.541 Q386.1553,421.541 386.7488,421.2712 Q387.3423,421.0015 387.9731,420.4204 Z "/><text fill="#000000" font-family="sans-serif" font-size="12" lengthAdjust="spacingAndGlyphs" textLength="33" x="399.5" y="421.5352">Track</text><line style="stroke: #A80036; stroke-width: 1.5;" x1="371.5" x2="434.5" y1="433" y2="433"/><line style="stroke: #A80036; stroke-width: 1.5;" x1="371.5" x2="434.5" y1="441" y2="441"/><!--class Effect--><rect fill="#FEFECE" filter="url(#f1te76y5i9yszt)" height="48" id="Effect" style="stroke: #A80036; stroke-width: 1.5;" width="64" x="628" y="214"/><ellipse cx="643" cy="230" fill="#A9DCDF" rx="11" ry="11" style="stroke: #A80036; stroke-width: 1.0;"/><path d="M643.1133,225.5981 L641.9595,230.6699 L644.2754,230.6699 Z M641.6191,223.3569 L644.6157,223.3569 L647.9609,235.75 L645.5122,235.75 L644.7485,232.687 L641.4697,232.687 L640.7227,235.75 L638.2739,235.75 Z "/><text fill="#000000" font-family="sans-serif" font-size="12" font-style="italic" lengthAdjust="spacingAndGlyphs" textLength="32" x="657" y="234.5352">Effect</text><line style="stroke: #A80036; stroke-width: 1.5;" x1="629" x2="691" y1="246" y2="246"/><line style="stroke: #A80036; stroke-width: 1.5;" x1="629" x2="691" y1="254" y2="254"/><!--class EffectAmplify--><rect fill="#FEFECE" filter="url(#f1te76y5i9yszt)" height="48" id="EffectAmplify" style="stroke: #A80036; stroke-width: 1.5;" width="107" x="740.5" y="401"/><ellipse cx="755.5" cy="417" fill="#ADD1B2" rx="11" ry="11" style="stroke: #A80036; stroke-width: 1.0;"/><path d="M757.9731,423.1431 Q757.3921,423.4419 756.7529,423.5913 Q756.1138,423.7407 755.4082,423.7407 Q752.9014,423.7407 751.5815,422.0889 Q750.2617,420.437 750.2617,417.3159 Q750.2617,414.1865 751.5815,412.5347 Q752.9014,410.8828 755.4082,410.8828 Q756.1138,410.8828 756.7612,411.0322 Q757.4087,411.1816 757.9731,411.4805 L757.9731,414.2031 Q757.3423,413.6221 756.7488,413.3523 Q756.1553,413.0825 755.5244,413.0825 Q754.1797,413.0825 753.4949,414.1492 Q752.8101,415.2158 752.8101,417.3159 Q752.8101,419.4077 753.4949,420.4744 Q754.1797,421.541 755.5244,421.541 Q756.1553,421.541 756.7488,421.2712 Q757.3423,421.0015 757.9731,420.4204 Z "/><text fill="#000000" font-family="sans-serif" font-size="12" lengthAdjust="spacingAndGlyphs" textLength="75" x="769.5" y="421.5352">EffectAmplify</text><line style="stroke: #A80036; stroke-width: 1.5;" x1="741.5" x2="846.5" y1="433" y2="433"/><line style="stroke: #A80036; stroke-width: 1.5;" x1="741.5" x2="846.5" y1="441" y2="441"/><!--class EffectEnveloppe--><rect fill="#FEFECE" filter="url(#f1te76y5i9yszt)" height="48" id="EffectEnveloppe" style="stroke: #A80036; stroke-width: 1.5;" width="124" x="883" y="401"/><ellipse cx="898" cy="417" fill="#ADD1B2" rx="11" ry="11" style="stroke: #A80036; stroke-width: 1.0;"/><path d="M900.4731,423.1431 Q899.8921,423.4419 899.2529,423.5913 Q898.6138,423.7407 897.9082,423.7407 Q895.4014,423.7407 894.0815,422.0889 Q892.7617,420.437 892.7617,417.3159 Q892.7617,414.1865 894.0815,412.5347 Q895.4014,410.8828 897.9082,410.8828 Q898.6138,410.8828 899.2612,411.0322 Q899.9087,411.1816 900.4731,411.4805 L900.4731,414.2031 Q899.8423,413.6221 899.2488,413.3523 Q898.6553,413.0825 898.0244,413.0825 Q896.6797,413.0825 895.9949,414.1492 Q895.3101,415.2158 895.3101,417.3159 Q895.3101,419.4077 895.9949,420.4744 Q896.6797,421.541 898.0244,421.541 Q898.6553,421.541 899.2488,421.2712 Q899.8423,421.0015 900.4731,420.4204 Z "/><text fill="#000000" font-family="sans-serif" font-size="12" lengthAdjust="spacingAndGlyphs" textLength="92" x="912" y="421.5352">EffectEnveloppe</text><line style="stroke: #A80036; stroke-width: 1.5;" x1="884" x2="1006" y1="433" y2="433"/><line style="stroke: #A80036; stroke-width: 1.5;" x1="884" x2="1006" y1="441" y2="441"/><!--class EffectRepeat--><rect fill="#FEFECE" filter="url(#f1te76y5i9yszt)" height="48" id="EffectRepeat" style="stroke: #A80036; stroke-width: 1.5;" width="105" x="1042.5" y="401"/><ellipse cx="1057.5" cy="417" fill="#ADD1B2" rx="11" ry="11" style="stroke: #A80036; stroke-width: 1.0;"/><path d="M1059.9731,423.1431 Q1059.3921,423.4419 1058.7529,423.5913 Q1058.1138,423.7407 1057.4082,423.7407 Q1054.9014,423.7407 1053.5815,422.0889 Q1052.2617,420.437 1052.2617,417.3159 Q1052.2617,414.1865 1053.5815,412.5347 Q1054.9014,410.8828 1057.4082,410.8828 Q1058.1138,410.8828 1058.7612,411.0322 Q1059.4087,411.1816 1059.9731,411.4805 L1059.9731,414.2031 Q1059.3423,413.6221 1058.7488,413.3523 Q1058.1553,413.0825 1057.5244,413.0825 Q1056.1797,413.0825 1055.4949,414.1492 Q1054.8101,415.2158 1054.8101,417.3159 Q1054.8101,419.4077 1055.4949,420.4744 Q1056.1797,421.541 1057.5244,421.541 Q1058.1553,421.541 1058.7488,421.2712 Q1059.3423,421.0015 1059.9731,420.4204 Z "/><text fill="#000000" font-family="sans-serif" font-size="12" lengthAdjust="spacingAndGlyphs" textLength="73" x="1071.5" y="421.5352">EffectRepeat</text><line style="stroke: #A80036; stroke-width: 1.5;" x1="1043.5" x2="1146.5" y1="433" y2="433"/><line style="stroke: #A80036; stroke-width: 1.5;" x1="1043.5" x2="1146.5" y1="441" y2="441"/><!--class EffectReverb--><rect fill="#FEFECE" filter="url(#f1te76y5i9yszt)" height="48" id="EffectReverb" style="stroke: #A80036; stroke-width: 1.5;" width="105" x="470.5" y="401"/><ellipse cx="485.5" cy="417" fill="#ADD1B2" rx="11" ry="11" style="stroke: #A80036; stroke-width: 1.0;"/><path d="M487.9731,423.1431 Q487.3921,423.4419 486.7529,423.5913 Q486.1138,423.7407 485.4082,423.7407 Q482.9014,423.7407 481.5815,422.0889 Q480.2617,420.437 480.2617,417.3159 Q480.2617,414.1865 481.5815,412.5347 Q482.9014,410.8828 485.4082,410.8828 Q486.1138,410.8828 486.7612,411.0322 Q487.4087,411.1816 487.9731,411.4805 L487.9731,414.2031 Q487.3423,413.6221 486.7488,413.3523 Q486.1553,413.0825 485.5244,413.0825 Q484.1797,413.0825 483.4949,414.1492 Q482.8101,415.2158 482.8101,417.3159 Q482.8101,419.4077 483.4949,420.4744 Q484.1797,421.541 485.5244,421.541 Q486.1553,421.541 486.7488,421.2712 Q487.3423,421.0015 487.9731,420.4204 Z "/><text fill="#000000" font-family="sans-serif" font-size="12" lengthAdjust="spacingAndGlyphs" textLength="73" x="499.5" y="421.5352">EffectReverb</text><line style="stroke: #A80036; stroke-width: 1.5;" x1="471.5" x2="574.5" y1="433" y2="433"/><line style="stroke: #A80036; stroke-width: 1.5;" x1="471.5" x2="574.5" y1="441" y2="441"/><!--class EffectSteps--><rect fill="#FEFECE" filter="url(#f1te76y5i9yszt)" height="48" id="EffectSteps" style="stroke: #A80036; stroke-width: 1.5;" width="95" x="610.5" y="401"/><ellipse cx="625.5" cy="417" fill="#ADD1B2" rx="11" ry="11" style="stroke: #A80036; stroke-width: 1.0;"/><path d="M627.9731,423.1431 Q627.3921,423.4419 626.7529,423.5913 Q626.1138,423.7407 625.4082,423.7407 Q622.9014,423.7407 621.5815,422.0889 Q620.2617,420.437 620.2617,417.3159 Q620.2617,414.1865 621.5815,412.5347 Q622.9014,410.8828 625.4082,410.8828 Q626.1138,410.8828 626.7612,411.0322 Q627.4087,411.1816 627.9731,411.4805 L627.9731,414.2031 Q627.3423,413.6221 626.7488,413.3523 Q626.1553,413.0825 625.5244,413.0825 Q624.1797,413.0825 623.4949,414.1492 Q622.8101,415.2158 622.8101,417.3159 Q622.8101,419.4077 623.4949,420.4744 Q624.1797,421.541 625.5244,421.541 Q626.1553,421.541 626.7488,421.2712 Q627.3423,421.0015 627.9731,420.4204 Z "/><text fill="#000000" font-family="sans-serif" font-size="12" lengthAdjust="spacingAndGlyphs" textLength="63" x="639.5" y="421.5352">EffectSteps</text><line style="stroke: #A80036; stroke-width: 1.5;" x1="611.5" x2="704.5" y1="433" y2="433"/><line style="stroke: #A80036; stroke-width: 1.5;" x1="611.5" x2="704.5" y1="441" y2="441"/><!--class NoiseMaker--><rect fill="#FEFECE" filter="url(#f1te76y5i9yszt)" height="48" id="NoiseMaker" style="stroke: #A80036; stroke-width: 1.5;" width="100" x="1435" y="749"/><ellipse cx="1450" cy="765" fill="#ADD1B2" rx="11" ry="11" style="stroke: #A80036; stroke-width: 1.0;"/><path d="M1452.4731,771.1431 Q1451.8921,771.4419 1451.2529,771.5913 Q1450.6138,771.7407 1449.9082,771.7407 Q1447.4014,771.7407 1446.0815,770.0889 Q1444.7617,768.437 1444.7617,765.3159 Q1444.7617,762.1865 1446.0815,760.5347 Q1447.4014,758.8828 1449.9082,758.8828 Q1450.6138,758.8828 1451.2612,759.0322 Q1451.9087,759.1816 1452.4731,759.4805 L1452.4731,762.2031 Q1451.8423,761.6221 1451.2488,761.3523 Q1450.6553,761.0825 1450.0244,761.0825 Q1448.6797,761.0825 1447.9949,762.1492 Q1447.3101,763.2158 1447.3101,765.3159 Q1447.3101,767.4077 1447.9949,768.4744 Q1448.6797,769.541 1450.0244,769.541 Q1450.6553,769.541 1451.2488,769.2712 Q1451.8423,769.0015 1452.4731,768.4204 Z "/><text fill="#000000" font-family="sans-serif" font-size="12" lengthAdjust="spacingAndGlyphs" textLength="68" x="1464" y="769.5352">NoiseMaker</text><line style="stroke: #A80036; stroke-width: 1.5;" x1="1436" x2="1534" y1="781" y2="781"/><line style="stroke: #A80036; stroke-width: 1.5;" x1="1436" x2="1534" y1="789" y2="789"/><!--class App--><rect fill="#FEFECE" filter="url(#f1te76y5i9yszt)" height="48" id="App" style="stroke: #A80036; stroke-width: 1.5;" width="56" x="1479" y="531"/><ellipse cx="1494" cy="547" fill="#ADD1B2" rx="11" ry="11" style="stroke: #A80036; stroke-width: 1.0;"/><path d="M1496.4731,553.1431 Q1495.8921,553.4419 1495.2529,553.5913 Q1494.6138,553.7407 1493.9082,553.7407 Q1491.4014,553.7407 1490.0815,552.0889 Q1488.7617,550.437 1488.7617,547.3159 Q1488.7617,544.1865 1490.0815,542.5347 Q1491.4014,540.8828 1493.9082,540.8828 Q1494.6138,540.8828 1495.2612,541.0322 Q1495.9087,541.1816 1496.4731,541.4805 L1496.4731,544.2031 Q1495.8423,543.6221 1495.2488,543.3523 Q1494.6553,543.0825 1494.0244,543.0825 Q1492.6797,543.0825 1491.9949,544.1492 Q1491.3101,545.2158 1491.3101,547.3159 Q1491.3101,549.4077 1491.9949,550.4744 Q1492.6797,551.541 1494.0244,551.541 Q1494.6553,551.541 1495.2488,551.2712 Q1495.8423,551.0015 1496.4731,550.4204 Z "/><text fill="#000000" font-family="sans-serif" font-size="12" lengthAdjust="spacingAndGlyphs" textLength="24" x="1508" y="551.5352">App</text><line style="stroke: #A80036; stroke-width: 1.5;" x1="1480" x2="1534" y1="563" y2="563"/><line style="stroke: #A80036; stroke-width: 1.5;" x1="1480" x2="1534" y1="571" y2="571"/><!--class Synth--><rect fill="#FEFECE" filter="url(#f1te76y5i9yszt)" height="48" id="Synth" style="stroke: #A80036; stroke-width: 1.5;" width="62" x="1382" y="531"/><ellipse cx="1397" cy="547" fill="#ADD1B2" rx="11" ry="11" style="stroke: #A80036; stroke-width: 1.0;"/><path d="M1399.4731,553.1431 Q1398.8921,553.4419 1398.2529,553.5913 Q1397.6138,553.7407 1396.9082,553.7407 Q1394.4014,553.7407 1393.0815,552.0889 Q1391.7617,550.437 1391.7617,547.3159 Q1391.7617,544.1865 1393.0815,542.5347 Q1394.4014,540.8828 1396.9082,540.8828 Q1397.6138,540.8828 1398.2612,541.0322 Q1398.9087,541.1816 1399.4731,541.4805 L1399.4731,544.2031 Q1398.8423,543.6221 1398.2488,543.3523 Q1397.6553,543.0825 1397.0244,543.0825 Q1395.6797,543.0825 1394.9949,544.1492 Q1394.3101,545.2158 1394.3101,547.3159 Q1394.3101,549.4077 1394.9949,550.4744 Q1395.6797,551.541 1397.0244,551.541 Q1397.6553,551.541 1398.2488,551.2712 Q1398.8423,551.0015 1399.4731,550.4204 Z "/><text fill="#000000" font-family="sans-serif" font-size="12" lengthAdjust="spacingAndGlyphs" textLength="30" x="1411" y="551.5352">Synth</text><line style="stroke: #A80036; stroke-width: 1.5;" x1="1383" x2="1443" y1="563" y2="563"/><line style="stroke: #A80036; stroke-width: 1.5;" x1="1383" x2="1443" y1="571" y2="571"/><!--class Sampler--><rect fill="#FEFECE" filter="url(#f1te76y5i9yszt)" height="48" id="Sampler" style="stroke: #A80036; stroke-width: 1.5;" width="79" x="1320.5" y="749"/><ellipse cx="1335.5" cy="765" fill="#ADD1B2" rx="11" ry="11" style="stroke: #A80036; stroke-width: 1.0;"/><path d="M1337.9731,771.1431 Q1337.3921,771.4419 1336.7529,771.5913 Q1336.1138,771.7407 1335.4082,771.7407 Q1332.9014,771.7407 1331.5815,770.0889 Q1330.2617,768.437 1330.2617,765.3159 Q1330.2617,762.1865 1331.5815,760.5347 Q1332.9014,758.8828 1335.4082,758.8828 Q1336.1138,758.8828 1336.7612,759.0322 Q1337.4087,759.1816 1337.9731,759.4805 L1337.9731,762.2031 Q1337.3423,761.6221 1336.7488,761.3523 Q1336.1553,761.0825 1335.5244,761.0825 Q1334.1797,761.0825 1333.4949,762.1492 Q1332.8101,763.2158 1332.8101,765.3159 Q1332.8101,767.4077 1333.4949,768.4744 Q1334.1797,769.541 1335.5244,769.541 Q1336.1553,769.541 1336.7488,769.2712 Q1337.3423,769.0015 1337.9731,768.4204 Z "/><text fill="#000000" font-family="sans-serif" font-size="12" lengthAdjust="spacingAndGlyphs" textLength="47" x="1349.5" y="769.5352">Sampler</text><line style="stroke: #A80036; stroke-width: 1.5;" x1="1321.5" x2="1398.5" y1="781" y2="781"/><line style="stroke: #A80036; stroke-width: 1.5;" x1="1321.5" x2="1398.5" y1="789" y2="789"/><!--class Thread--><rect fill="#FEFECE" filter="url(#f1te76y5i9yszt)" height="48" id="Thread" style="stroke: #A80036; stroke-width: 1.5;" width="74" x="1273" y="531"/><ellipse cx="1288" cy="547" fill="#ADD1B2" rx="11" ry="11" style="stroke: #A80036; stroke-width: 1.0;"/><path d="M1290.4731,553.1431 Q1289.8921,553.4419 1289.2529,553.5913 Q1288.6138,553.7407 1287.9082,553.7407 Q1285.4014,553.7407 1284.0815,552.0889 Q1282.7617,550.437 1282.7617,547.3159 Q1282.7617,544.1865 1284.0815,542.5347 Q1285.4014,540.8828 1287.9082,540.8828 Q1288.6138,540.8828 1289.2612,541.0322 Q1289.9087,541.1816 1290.4731,541.4805 L1290.4731,544.2031 Q1289.8423,543.6221 1289.2488,543.3523 Q1288.6553,543.0825 1288.0244,543.0825 Q1286.6797,543.0825 1285.9949,544.1492 Q1285.3101,545.2158 1285.3101,547.3159 Q1285.3101,549.4077 1285.9949,550.4744 Q1286.6797,551.541 1288.0244,551.541 Q1288.6553,551.541 1289.2488,551.2712 Q1289.8423,551.0015 1290.4731,550.4204 Z "/><text fill="#000000" font-family="sans-serif" font-size="12" lengthAdjust="spacingAndGlyphs" textLength="42" x="1302" y="551.5352">Thread</text><line style="stroke: #A80036; stroke-width: 1.5;" x1="1274" x2="1346" y1="563" y2="563"/><line style="stroke: #A80036; stroke-width: 1.5;" x1="1274" x2="1346" y1="571" y2="571"/><!--class Player--><rect fill="#FEFECE" filter="url(#f1te76y5i9yszt)" height="48" id="Player" style="stroke: #A80036; stroke-width: 1.5;" width="67" x="1203.5" y="749"/><ellipse cx="1218.5" cy="765" fill="#ADD1B2" rx="11" ry="11" style="stroke: #A80036; stroke-width: 1.0;"/><path d="M1220.9731,771.1431 Q1220.3921,771.4419 1219.7529,771.5913 Q1219.1138,771.7407 1218.4082,771.7407 Q1215.9014,771.7407 1214.5815,770.0889 Q1213.2617,768.437 1213.2617,765.3159 Q1213.2617,762.1865 1214.5815,760.5347 Q1215.9014,758.8828 1218.4082,758.8828 Q1219.1138,758.8828 1219.7612,759.0322 Q1220.4087,759.1816 1220.9731,759.4805 L1220.9731,762.2031 Q1220.3423,761.6221 1219.7488,761.3523 Q1219.1553,761.0825 1218.5244,761.0825 Q1217.1797,761.0825 1216.4949,762.1492 Q1215.8101,763.2158 1215.8101,765.3159 Q1215.8101,767.4077 1216.4949,768.4744 Q1217.1797,769.541 1218.5244,769.541 Q1219.1553,769.541 1219.7488,769.2712 Q1220.3423,769.0015 1220.9731,768.4204 Z "/><text fill="#000000" font-family="sans-serif" font-size="12" lengthAdjust="spacingAndGlyphs" textLength="35" x="1232.5" y="769.5352">Player</text><line style="stroke: #A80036; stroke-width: 1.5;" x1="1204.5" x2="1269.5" y1="781" y2="781"/><line style="stroke: #A80036; stroke-width: 1.5;" x1="1204.5" x2="1269.5" y1="789" y2="789"/><!--class Writer--><rect fill="#FEFECE" filter="url(#f1te76y5i9yszt)" height="48" id="Writer" style="stroke: #A80036; stroke-width: 1.5;" width="66" x="1172" y="531"/><ellipse cx="1187" cy="547" fill="#ADD1B2" rx="11" ry="11" style="stroke: #A80036; stroke-width: 1.0;"/><path d="M1189.4731,553.1431 Q1188.8921,553.4419 1188.2529,553.5913 Q1187.6138,553.7407 1186.9082,553.7407 Q1184.4014,553.7407 1183.0815,552.0889 Q1181.7617,550.437 1181.7617,547.3159 Q1181.7617,544.1865 1183.0815,542.5347 Q1184.4014,540.8828 1186.9082,540.8828 Q1187.6138,540.8828 1188.2612,541.0322 Q1188.9087,541.1816 1189.4731,541.4805 L1189.4731,544.2031 Q1188.8423,543.6221 1188.2488,543.3523 Q1187.6553,543.0825 1187.0244,543.0825 Q1185.6797,543.0825 1184.9949,544.1492 Q1184.3101,545.2158 1184.3101,547.3159 Q1184.3101,549.4077 1184.9949,550.4744 Q1185.6797,551.541 1187.0244,551.541 Q1187.6553,551.541 1188.2488,551.2712 Q1188.8423,551.0015 1189.4731,550.4204 Z "/><text fill="#000000" font-family="sans-serif" font-size="12" lengthAdjust="spacingAndGlyphs" textLength="34" x="1201" y="551.5352">Writer</text><line style="stroke: #A80036; stroke-width: 1.5;" x1="1173" x2="1237" y1="563" y2="563"/><line style="stroke: #A80036; stroke-width: 1.5;" x1="1173" x2="1237" y1="571" y2="571"/><!--class SharedArea--><rect fill="#FEFECE" filter="url(#f1te76y5i9yszt)" height="48" id="SharedArea" style="stroke: #A80036; stroke-width: 1.5;" width="99" x="1175.5" y="920"/><ellipse cx="1190.5" cy="936" fill="#ADD1B2" rx="11" ry="11" style="stroke: #A80036; stroke-width: 1.0;"/><path d="M1192.9731,942.1431 Q1192.3921,942.4419 1191.7529,942.5913 Q1191.1138,942.7407 1190.4082,942.7407 Q1187.9014,942.7407 1186.5815,941.0889 Q1185.2617,939.437 1185.2617,936.3159 Q1185.2617,933.1865 1186.5815,931.5347 Q1187.9014,929.8828 1190.4082,929.8828 Q1191.1138,929.8828 1191.7612,930.0322 Q1192.4087,930.1816 1192.9731,930.4805 L1192.9731,933.2031 Q1192.3423,932.6221 1191.7488,932.3523 Q1191.1553,932.0825 1190.5244,932.0825 Q1189.1797,932.0825 1188.4949,933.1492 Q1187.8101,934.2158 1187.8101,936.3159 Q1187.8101,938.4077 1188.4949,939.4744 Q1189.1797,940.541 1190.5244,940.541 Q1191.1553,940.541 1191.7488,940.2712 Q1192.3423,940.0015 1192.9731,939.4204 Z "/><text fill="#000000" font-family="sans-serif" font-size="12" lengthAdjust="spacingAndGlyphs" textLength="67" x="1204.5" y="940.5352">SharedArea</text><line style="stroke: #A80036; stroke-width: 1.5;" x1="1176.5" x2="1273.5" y1="952" y2="952"/><line style="stroke: #A80036; stroke-width: 1.5;" x1="1176.5" x2="1273.5" y1="960" y2="960"/><!--class SharedByteBuffer--><rect fill="#FEFECE" filter="url(#f1te76y5i9yszt)" height="48" id="SharedByteBuffer" style="stroke: #A80036; stroke-width: 1.5;" width="130" x="1310" y="920"/><ellipse cx="1325" cy="936" fill="#ADD1B2" rx="11" ry="11" style="stroke: #A80036; stroke-width: 1.0;"/><path d="M1327.4731,942.1431 Q1326.8921,942.4419 1326.2529,942.5913 Q1325.6138,942.7407 1324.9082,942.7407 Q1322.4014,942.7407 1321.0815,941.0889 Q1319.7617,939.437 1319.7617,936.3159 Q1319.7617,933.1865 1321.0815,931.5347 Q1322.4014,929.8828 1324.9082,929.8828 Q1325.6138,929.8828 1326.2612,930.0322 Q1326.9087,930.1816 1327.4731,930.4805 L1327.4731,933.2031 Q1326.8423,932.6221 1326.2488,932.3523 Q1325.6553,932.0825 1325.0244,932.0825 Q1323.6797,932.0825 1322.9949,933.1492 Q1322.3101,934.2158 1322.3101,936.3159 Q1322.3101,938.4077 1322.9949,939.4744 Q1323.6797,940.541 1325.0244,940.541 Q1325.6553,940.541 1326.2488,940.2712 Q1326.8423,940.0015 1327.4731,939.4204 Z "/><text fill="#000000" font-family="sans-serif" font-size="12" lengthAdjust="spacingAndGlyphs" textLength="98" x="1339" y="940.5352">SharedByteBuffer</text><line style="stroke: #A80036; stroke-width: 1.5;" x1="1311" x2="1439" y1="952" y2="952"/><line style="stroke: #A80036; stroke-width: 1.5;" x1="1311" x2="1439" y1="960" y2="960"/><!--link NamedElement to Effect--><path d="M555.8142,95.4738 C580.0603,128.6424 619.69,182.856 642.4454,213.9853 " fill="none" id="NamedElement-Effect" style="stroke: #A80036; stroke-width: 1.0;"/><polygon fill="#A80036" points="552.6443,91.1374,554.7265,100.7636,555.595,95.1739,561.1848,96.0425,552.6443,91.1374" style="stroke: #A80036; stroke-width: 1.0;"/><!--link NamedElement to Signal--><path d="M514.3523,95.4738 C490.3002,128.6424 450.9875,182.856 428.4141,213.9853 " fill="none" id="NamedElement-Signal" style="stroke: #A80036; stroke-width: 1.0;"/><polygon fill="#A80036" points="517.4968,91.1374,508.9752,96.0752,514.5616,95.1852,515.4516,100.7716,517.4968,91.1374" style="stroke: #A80036; stroke-width: 1.0;"/><!--link Signal to Oscillator--><path d="M377.9343,278.1016 C374.4745,282.7117 371.0953,287.4066 368,292 C343.4093,328.492 319.1743,373.5811 305.1734,400.7741 " fill="none" id="Signal-Oscillator" style="stroke: #A80036; stroke-width: 1.0;"/><polygon fill="none" points="372.6146,273.5411,390.4553,262.1083,383.6382,282.1714,372.6146,273.5411" style="stroke: #A80036; stroke-width: 1.0;"/><!--link Signal to Track--><path d="M425.7191,281.6738 C430.0741,299.6915 432.9747,320.809 430,340 C426.727,361.1151 419.1368,384.1655 412.835,400.9289 " fill="none" id="Signal-Track" style="stroke: #A80036; stroke-width: 1.0;"/><polygon fill="none" points="418.9324,283.3993,420.2037,262.2478,432.4001,279.5755,418.9324,283.3993" style="stroke: #A80036; stroke-width: 1.0;"/><!--link Signal to Track--><path d="M390.4183,266.5737 C380.3067,282.3779 369.1994,302.8518 364,323 C356.9415,350.3523 371.3112,380.4183 384.5565,400.7733 " fill="none" id="Signal-Track" style="stroke: #A80036; stroke-width: 1.0;"/><polygon fill="#A80036" points="393.2381,262.244,384.9745,267.6025,390.5093,266.4337,391.6781,271.9685,393.2381,262.244" style="stroke: #A80036; stroke-width: 1.0;"/><text fill="#000000" font-family="sans-serif" font-size="13" lengthAdjust="spacingAndGlyphs" textLength="56" x="365" y="336.5684">Contains</text><!--link Oscillator to ComplexOscillator--><path d="M296.0602,454.2551 C301.0462,501.9217 310.8304,595.4589 315.4586,639.704 " fill="none" id="Oscillator-ComplexOscillator" style="stroke: #A80036; stroke-width: 1.0;"/><polygon fill="#A80036" points="295.5347,449.2319,292.4929,458.5993,296.055,454.2048,300.4495,457.7668,295.5347,449.2319" style="stroke: #A80036; stroke-width: 1.0;"/><!--link Effect to Track--><path d="M623.3539,260.3358 C596.6991,276.9268 560.0033,300.4877 529,323 C494.3839,348.1356 456.4545,379.3817 431.3499,400.6207 " fill="none" id="Effect-Track" style="stroke: #A80036; stroke-width: 1.0;"/><polygon fill="#A80036" points="627.8761,257.528,618.1201,258.8775,623.6284,260.1656,622.3403,265.6738,627.8761,257.528" style="stroke: #A80036; stroke-width: 1.0;"/><text fill="#000000" font-family="sans-serif" font-size="13" lengthAdjust="spacingAndGlyphs" textLength="56" x="530" y="336.5684">Contains</text><!--link Effect to EffectAmplify--><path d="M688.905,278.3376 C715.6026,315.5947 754.3863,369.7182 776.6101,400.732 " fill="none" id="Effect-EffectAmplify" style="stroke: #A80036; stroke-width: 1.0;"/><polygon fill="none" points="683.2033,282.3985,677.2438,262.0642,694.5833,274.2439,683.2033,282.3985" style="stroke: #A80036; stroke-width: 1.0;"/><!--link Effect to EffectEnveloppe--><path d="M709.1701,270.2625 C765.7081,307.3594 857.2363,367.4147 908.0402,400.7492 " fill="none" id="Effect-EffectEnveloppe" style="stroke: #A80036; stroke-width: 1.0;"/><polygon fill="none" points="705.0208,275.9123,692.1391,259.0878,712.7011,264.207,705.0208,275.9123" style="stroke: #A80036; stroke-width: 1.0;"/><!--link Effect to EffectRepeat--><path d="M710.9297,259.8939 C794.0699,295.6347 958.1086,366.1524 1042.3499,402.3665 " fill="none" id="Effect-EffectRepeat" style="stroke: #A80036; stroke-width: 1.0;"/><polygon fill="none" points="707.9499,266.2324,692.3403,251.9026,713.4791,253.3705,707.9499,266.2324" style="stroke: #A80036; stroke-width: 1.0;"/><!--link Effect to EffectReverb--><path d="M635.4791,279.2519 C623.7944,298.1617 609.2749,320.6288 595,340 C579.2821,361.3293 559.767,384.173 545.0204,400.8015 " fill="none" id="Effect-EffectReverb" style="stroke: #A80036; stroke-width: 1.0;"/><polygon fill="none" points="629.5354,275.5535,645.9084,262.1026,641.4971,282.828,629.5354,275.5535" style="stroke: #A80036; stroke-width: 1.0;"/><!--link Effect to EffectSteps--><path d="M659.5274,282.1875 C659.1311,319.2417 658.58,370.7707 658.2596,400.732 " fill="none" id="Effect-EffectSteps" style="stroke: #A80036; stroke-width: 1.0;"/><polygon fill="none" points="652.529,281.9881,659.7426,262.0642,666.5282,282.1379,652.529,281.9881" style="stroke: #A80036; stroke-width: 1.0;"/><!--link App to NoiseMaker--><path d="M1502.54,599.195 C1497.988,644.3009 1491.0901,712.653 1487.4494,748.729 " fill="none" id="App-NoiseMaker" style="stroke: #A80036; stroke-width: 1.0;"/><polygon fill="none" points="1495.5887,598.3588,1504.5616,579.1627,1509.5179,599.7646,1495.5887,598.3588" style="stroke: #A80036; stroke-width: 1.0;"/><!--link Thread to Sampler--><path d="M1284.6384,596.7202 C1270.5965,625.4578 1258.619,664.0675 1273,696 C1282.8563,717.8856 1302.3483,736.0626 1320.388,749.2498 " fill="none" id="Thread-Sampler" style="stroke: #A80036; stroke-width: 1.0;"/><polygon fill="none" points="1278.5167,593.324,1294.1485,579.0185,1290.8495,599.9497,1278.5167,593.324" style="stroke: #A80036; stroke-width: 1.0;"/><!--link Thread to Player--><path d="M1278.9073,596.0524 C1276.0999,600.3398 1273.411,604.7026 1271,609 C1245.746,654.0125 1239.1668,715.4479 1237.5065,748.8926 " fill="none" id="Thread-Player" style="stroke: #A80036; stroke-width: 1.0;"/><polygon fill="none" points="1273.4968,591.5755,1290.7068,579.2135,1284.9621,599.6096,1273.4968,591.5755" style="stroke: #A80036; stroke-width: 1.0;"/><!--link Track to Synth--><path d="M435.6669,442.8755 C441.3093,445.3198 447.2215,447.5006 453,449 C649.5268,499.994 1181.1281,417.8938 1365,504 C1375.7877,509.0518 1385.3484,517.7061 1393.0413,526.4658 " fill="none" id="Track-Synth" style="stroke: #A80036; stroke-width: 1.0;"/><polygon fill="#A80036" points="1396.665,530.7591,1393.9168,521.3014,1393.44,526.9382,1387.8033,526.4614,1396.665,530.7591" style="stroke: #A80036; stroke-width: 1.0;"/><text fill="#000000" font-family="sans-serif" font-size="13" lengthAdjust="spacingAndGlyphs" textLength="105" x="1342" y="492.5684">Creates on play()</text><!--link Synth to Player--><path d="M1383.3225,579.3427 C1364.5948,595.488 1340.5307,617.7332 1322,640 C1294.3274,673.252 1268.4606,716.0703 1252.6958,744.0114 " fill="none" id="Synth-Player" style="stroke: #A80036; stroke-width: 1.0;"/><polygon fill="#A80036" points="1250.0628,748.7066,1257.9538,742.8132,1252.5085,744.3456,1250.9762,738.9002,1250.0628,748.7066" style="stroke: #A80036; stroke-width: 1.0;"/><text fill="#000000" font-family="sans-serif" font-size="13" lengthAdjust="spacingAndGlyphs" textLength="47" x="1323" y="669.0684">Creates</text><!--link Synth to Sampler--><path d="M1407.1256,579.1627 C1397.3358,619.43 1377.7179,700.1225 1367.1441,743.6147 " fill="none" id="Synth-Sampler" style="stroke: #A80036; stroke-width: 1.0;"/><polygon fill="#A80036" points="1365.9007,748.729,1371.9137,740.9288,1367.082,743.8705,1364.1402,739.0388,1365.9007,748.729" style="stroke: #A80036; stroke-width: 1.0;"/><text fill="#000000" font-family="sans-serif" font-size="13" lengthAdjust="spacingAndGlyphs" textLength="47" x="1393" y="669.0684">Creates</text><!--link Sampler to Track--><path d="M1399.633,749.3673 C1474.116,702.0172 1621.5675,592.4803 1553,504 C1525.7295,468.8099 1500.0777,485.2597 1456,479 C1235.2266,447.6468 669.6654,501.7257 453,449 C448.8309,447.9854 444.5981,446.5969 440.4503,444.9952 " fill="none" id="Sampler-Track" style="stroke: #A80036; stroke-width: 1.0;"/><polygon fill="#A80036" points="435.6289,443.0268,442.4492,450.132,440.2579,444.9168,445.4731,442.7255,435.6289,443.0268" style="stroke: #A80036; stroke-width: 1.0;"/><!--link Sampler to SharedArea--><path d="M1340.9441,797.1374 C1316.3205,828.3274 1273.5183,882.5435 1247.3762,915.6568 " fill="none" id="Sampler-SharedArea" style="stroke: #A80036; stroke-width: 1.0;"/><polygon fill="#A80036" points="1243.9589,919.9853,1252.6753,915.4,1247.0572,916.0609,1246.3962,910.4428,1243.9589,919.9853" style="stroke: #A80036; stroke-width: 1.0;"/><!--link Sampler to SharedByteBuffer--><path d="M1362.1173,797.1374 C1364.8309,828.0728 1369.5316,881.6599 1372.4423,914.8417 " fill="none" id="Sampler-SharedByteBuffer" style="stroke: #A80036; stroke-width: 1.0;"/><polygon fill="#A80036" points="1372.8935,919.9853,1376.0916,910.6701,1372.4565,915.0044,1368.1222,911.3693,1372.8935,919.9853" style="stroke: #A80036; stroke-width: 1.0;"/><!--link Player to SharedArea--><path d="M1235.3061,797.1374 C1233.1352,828.0728 1229.3747,881.6599 1227.0462,914.8417 " fill="none" id="Player-SharedArea" style="stroke: #A80036; stroke-width: 1.0;"/><polygon fill="#A80036" points="1226.6852,919.9853,1231.3054,911.2874,1227.0352,914.9976,1223.325,910.7274,1226.6852,919.9853" style="stroke: #A80036; stroke-width: 1.0;"/><!--link Player to SharedByteBuffer--><path d="M1256.4793,797.1374 C1281.7529,828.4547 1325.761,882.9865 1352.4529,916.0612 " fill="none" id="Player-SharedByteBuffer" style="stroke: #A80036; stroke-width: 1.0;"/><polygon fill="#A80036" points="1355.6198,919.9853,1353.0804,910.4695,1352.4797,916.0943,1346.8548,915.4936,1355.6198,919.9853" style="stroke: #A80036; stroke-width: 1.0;"/><!--link Logger to Constants--><!--link Logger to SoundBlocks--><!--link SoundBlocks to Notes--><!--
@startuml

package utils{
    class Logger
    Class Constants
    class SoundBlocks
    class Notes
}

package design{
    class NamedElement
    abstract class Signal
    class Oscillator
    class ComplexOscillator
    class Track
    abstract Class Effect

    NamedElement <- - Effect
    NamedElement <- - Signal
    Signal <|- - Oscillator
    Signal <|- - Track
    Oscillator <- - ComplexOscillator

    Signal <- - Track : Contains
    Effect <- - Track : Contains

    class EffectAmplify
    Class EffectEnveloppe
    class EffectRepeat
    class EffectReverb
    class EffectSteps

    Effect <|- - EffectAmplify
    Effect <|- - EffectEnveloppe
    Effect <|- - EffectRepeat
    Effect <|- - EffectReverb
    Effect <|- - EffectSteps
}

package run{
    class NoiseMaker extends App

    class Synth
    class Sampler extends Thread
    class Player extends Thread
    class Writer
    class SharedArea
    class SharedByteBuffer

    Track - -> Synth : Creates on play()
    Synth - -> Player : Creates
    Synth - -> Sampler : Creates

    Sampler - -> Track
    Sampler - -> SharedArea
    Sampler - -> SharedByteBuffer

    Player - -> SharedArea
    Player - -> SharedByteBuffer
}

@enduml

PlantUML version 1.2019.03(Sun Mar 10 12:04:44 CET 2019)
(GPL source distribution)
Java Runtime: Java(TM) SE Runtime Environment
JVM: Java HotSpot(TM) 64-Bit Server VM
Java Version: 1.8.0_181-b13
Operating System: Mac OS X
OS Version: 10.14.4
Default Encoding: UTF-8
Language: en
Country: FR
--></g></svg>